<svg width="122.88" height="120.89" xmlns="http://www.w3.org/2000/svg" data-name="Layer 1">
 <title>download-file</title>

 <g>
  <title>Layer 1</title>
  <path fill="white" id="svg_1" d="m84.58,47a7.71,7.71 0 1 1 10.8,11l-29.29,28.88a7.72,7.72 0 0 1 -10.82,0l-28.87,-28.51a7.71,7.71 0 1 1 10.81,-11l15.89,15.75l0.16,-55.47a7.72,7.72 0 0 1 15.43,0.13l-0.15,55l16.04,-15.78zm-84.58,66.48l0.1,-30.18a7.72,7.72 0 1 1 15.43,0.14l-0.07,22q46,0.09 91.91,0l0.07,-22.12a7.72,7.72 0 1 1 15.44,0.14l-0.1,30l-0.09,0a7.71,7.71 0 0 1 -7.64,7.36q-53.73,0.1 -107.38,0a7.7,7.7 0 0 1 -7.67,-7.34z"/>
  <path id="svg_2" d="m69.43999,71.7785" opacity="NaN"/>
 </g>
</svg>